<?xml version="1.0" encoding="UTF-8"?>
<svg xmlns="http://www.w3.org/2000/svg" xmlns:xlink="http://www.w3.org/1999/xlink" width="487px" height="305px" viewBox="0 0 487 305" version="1.1">
<defs>
<clipPath id="clip1">
  <path d="M 177.007812 58.066406 L 309.398438 58.066406 L 309.398438 245.949219 L 177.007812 245.949219 Z M 177.007812 58.066406 "/>
</clipPath>
<clipPath id="clip2">
  <path d="M 120 0 L 317 0 L 317 304.015625 L 120 304.015625 Z M 120 0 "/>
</clipPath>
<clipPath id="clip3">
  <path d="M 113 0 L 324 0 L 324 304.015625 L 113 304.015625 Z M 113 0 "/>
</clipPath>
</defs>
<g id="surface1">
<g clip-path="url(#clip1)" clip-rule="nonzero">
<path style=" stroke:none;fill-rule:nonzero;fill:rgb(92.54902%,25.490196%,1.568627%);fill-opacity:1;" d="M 254.257812 245.949219 L 232.949219 245.949219 L 274.769531 58.066406 L 295.816406 58.066406 Z M 253.195312 245.949219 L 232.148438 245.949219 L 190.328125 58.066406 L 211.640625 58.066406 Z M 201.25 245.949219 L 177.007812 245.949219 L 177.007812 58.066406 L 201.25 58.066406 Z M 309.398438 245.949219 L 285.160156 245.949219 L 285.160156 58.066406 L 309.398438 58.066406 Z M 309.398438 245.949219 "/>
</g>
<g clip-path="url(#clip2)" clip-rule="nonzero">
<path style=" stroke:none;fill-rule:nonzero;fill:rgb(92.54902%,25.490196%,1.568627%);fill-opacity:1;" d="M 218.238281 0 C 255.609375 0 289.832031 13.5 316.292969 35.890625 L 302.589844 35.890625 C 278.914062 18.644531 249.765625 8.472656 218.238281 8.472656 C 186.710938 8.472656 157.558594 18.644531 133.882812 35.890625 L 120.179688 35.890625 C 146.640625 13.5 180.863281 0 218.238281 0 Z M 218.238281 304.015625 C 180.863281 304.015625 146.644531 290.515625 120.179688 268.125 L 133.882812 268.125 C 157.558594 285.371094 186.707031 295.542969 218.238281 295.546875 C 249.765625 295.546875 278.914062 285.371094 302.589844 268.125 L 316.292969 268.125 C 289.832031 290.515625 255.609375 304.015625 218.238281 304.015625 Z M 218.238281 304.015625 "/>
</g>
<g clip-path="url(#clip3)" clip-rule="nonzero">
<path style="fill:none;stroke-width:1;stroke-linecap:butt;stroke-linejoin:miter;stroke:rgb(100%,100%,100%);stroke-opacity:1;stroke-miterlimit:4;" d="M 177.450126 0.000000000000005823 C 207.850869 0.000000000000005823 235.690412 10.977049 257.21593 29.183197 L 246.068674 29.183197 C 226.808832 15.160143 203.097079 6.889242 177.450126 6.889242 C 151.803174 6.889242 128.088243 15.160143 108.828402 29.183197 L 97.681145 29.183197 C 119.206663 10.977049 147.046206 0.000000000000005823 177.450126 0.000000000000005823 Z M 177.450126 247.19959 C 147.046206 247.19959 119.209841 236.222541 97.681145 218.016393 L 108.828402 218.016393 C 128.088243 232.039447 151.799996 240.310348 177.450126 240.313525 C 203.097079 240.313525 226.808832 232.039447 246.068674 218.016393 L 257.21593 218.016393 C 235.690412 236.222541 207.850869 247.19959 177.450126 247.19959 Z M 177.450126 247.19959 " transform="matrix(1.229282,0,0,1.229839,0.101989,-0.000000000000007161)"/>
</g>
</g>
</svg>
