<svg xmlns="http://www.w3.org/2000/svg" version="1.1" xmlns:xlink="http://www.w3.org/1999/xlink" xmlns:svgjs="http://svgjs.dev/svgjs" width="1500" height="939" viewBox="0 0 1500 939"><g transform="matrix(1,0,0,1,-0.9090909090909918,-1.5145161290323017)"><svg viewBox="0 0 396 248" data-background-color="#ffffff" preserveAspectRatio="xMidYMid meet" height="939" width="1500" xmlns="http://www.w3.org/2000/svg" xmlns:xlink="http://www.w3.org/1999/xlink"><g id="tight-bounds" transform="matrix(1,0,0,1,0.2400000000000091,0.4000000000000057)"><svg viewBox="0 0 395.52 247.2" height="247.2" width="395.52"><g><svg></svg></g><g><svg viewBox="0 0 395.52 247.2" height="247.2" width="395.52"><g transform="matrix(1,0,0,1,143.91142468085104,47.215199999999996)"><svg viewBox="0 0 107.69715063829788 152.7696" height="152.7696" width="107.69715063829788"><g><svg viewBox="0 0 107.69715063829788 152.7696" height="152.7696" width="107.69715063829788"><g><svg viewBox="0 0 107.69715063829788 152.7696" height="152.7696" width="107.69715063829788"><g><svg viewBox="0 0 107.69715063829788 152.7696" height="152.7696" width="107.69715063829788"><g id="textblocktransform"><svg viewBox="0 0 107.69715063829788 152.7696" height="152.7696" width="107.69715063829788" id="textblock"><g><svg viewBox="0 0 107.69715063829788 152.7696" height="152.7696" width="107.69715063829788"><g transform="matrix(1,0,0,1,0,0)"><svg width="107.69715063829788" viewBox="3 -35.25 24.85 35.25" height="152.7696" data-palette-color="#ec4104"><path d="M17.5 0L13.5 0 21.35-35.25 25.3-35.25 17.5 0ZM17.3 0L13.35 0 5.5-35.25 9.5-35.25 17.3 0ZM7.55 0L3 0 3-35.25 7.55-35.25 7.55 0ZM27.85 0L23.3 0 23.3-35.25 27.85-35.25 27.85 0Z" opacity="1" transform="matrix(1,0,0,1,0,0)" fill="#ec4104" class="wordmark-text-0" data-fill-palette-color="primary" id="text-0"></path></svg></g></svg></g></svg></g></svg></g></svg></g></svg></g></svg></g><g><path d="M177.449 0c30.402 0 58.24 10.976 79.768 29.183l-11.147 0c-19.26-14.022-42.974-22.294-68.621-22.295-25.647 0-49.361 8.272-68.622 22.295l-11.147 0c21.528-18.206 49.366-29.183 79.769-29.183zM177.449 247.2c-30.402 0-58.24-10.976-79.769-29.183l11.147 0c19.26 14.022 42.974 22.294 68.622 22.295 25.647 0 49.361-8.272 68.621-22.295l11.147 0c-21.528 18.206-49.366 29.183-79.768 29.183z" fill="#ec4104" stroke="transparent" data-fill-palette-color="tertiary"></path></g></svg></g><defs></defs></svg><rect width="395.52" height="247.2" fill="none" stroke="none" visibility="hidden"></rect></g></svg></g></svg>